<svg width="32" height="32" viewBox="0 0 32 32" fill="none" xmlns="http://www.w3.org/2000/svg">
  <!-- Background -->
  <rect width="32" height="32" rx="6" fill="url(#gradient)"/>
  
  <!-- Infinity Symbol -->
  <path d="M8 16C8 12.6863 10.6863 10 14 10C15.1046 10 16.1046 10.4477 16.8284 11.1716L18.1716 12.5147C18.702 13.0451 19.298 13.0451 19.8284 12.5147L21.1716 11.1716C21.8954 10.4477 22.8954 10 24 10C27.3137 10 30 12.6863 30 16C30 19.3137 27.3137 22 24 22C22.8954 22 21.8954 21.5523 21.1716 20.8284L19.8284 19.4853C19.298 18.9549 18.702 18.9549 18.1716 19.4853L16.8284 20.8284C16.1046 21.5523 15.1046 22 14 22C10.6863 22 8 19.3137 8 16Z" fill="white" opacity="0.95"/>
  <path d="M14 12C11.7909 12 10 13.7909 10 16C10 18.2091 11.7909 20 14 20C14.5304 20 15.0391 19.7893 15.4142 19.4142L16.5858 18.2426C17.3668 17.4616 18.6332 17.4616 19.4142 18.2426L20.5858 19.4142C20.9609 19.7893 21.4696 20 22 20C24.2091 20 26 18.2091 26 16C26 13.7909 24.2091 12 22 12C21.4696 12 20.9609 12.2107 20.5858 12.5858L19.4142 13.7574C18.6332 14.5384 17.3668 14.5384 16.5858 13.7574L15.4142 12.5858C15.0391 12.2107 14.5304 12 14 12Z" fill="url(#gradient2)"/>
  
  <!-- Box outline -->
  <rect x="6" y="6" width="20" height="20" rx="2" stroke="white" stroke-width="1.5" opacity="0.3"/>
  
  <defs>
    <linearGradient id="gradient" x1="0" y1="0" x2="32" y2="32" gradientUnits="userSpaceOnUse">
      <stop offset="0%" stop-color="#10b981"/>
      <stop offset="100%" stop-color="#14b8a6"/>
    </linearGradient>
    <linearGradient id="gradient2" x1="10" y1="12" x2="22" y2="20" gradientUnits="userSpaceOnUse">
      <stop offset="0%" stop-color="#ffffff"/>
      <stop offset="100%" stop-color="#f0fdf4"/>
    </linearGradient>
  </defs>
</svg>
